<svg width="16" height="16" viewBox="0 0 16 16" fill="none" xmlns="http://www.w3.org/2000/svg">
<g id="arrow-right">
<path id="Union" fill-rule="evenodd" clip-rule="evenodd" d="M9.68691 2.97994C9.49164 2.78468 9.17506 2.78468 8.9798 2.97994C8.78454 3.1752 8.78454 3.49179 8.9798 3.68705L12.7929 7.50016L1.66669 7.50016C1.39054 7.50016 1.16669 7.72402 1.16669 8.00016C1.16669 8.27631 1.39054 8.50016 1.66669 8.50016L12.7929 8.50016L8.9798 12.3133C8.78454 12.5085 8.78454 12.8251 8.9798 13.0204C9.17506 13.2156 9.49164 13.2156 9.68691 13.0204L14.3531 8.3542L14.3536 8.35372M14.4621 7.80877C14.4377 7.7498 14.4015 7.69455 14.3536 7.64661L9.68691 2.97994M14.4621 7.80877C14.4862 7.86686 14.4996 7.93046 14.5 7.99716L14.4621 7.80877ZM14.5 8.00316C14.5 8.00216 14.5 8.00116 14.5 8.00016C14.5 7.99916 14.5 7.99816 14.5 7.99716M14.5 8.00316C14.4993 8.12919 14.4512 8.255 14.3557 8.35159L14.5 8.00316Z" fill="#D8127E"/>
</g>
</svg>
